<?xml version="1.0" encoding="UTF-8" standalone="no"?>
<svg
   class="wave"
   style="pointer-events: none"
   fill="#171B34"
   preserveAspectRatio="none"
   xlink="http://www.w3.org/1999/xlink"
   viewBox="0 0 1920 75"
   version="1.1"
   id="svg849"
   sodipodi:docname="borderWavesBlue.svg"
   inkscape:version="1.1-dev (9017afb, 2021-01-01)"
   xmlns:inkscape="http://www.inkscape.org/namespaces/inkscape"
   xmlns:sodipodi="http://sodipodi.sourceforge.net/DTD/sodipodi-0.dtd"
   xmlns="http://www.w3.org/2000/svg"
   xmlns:svg="http://www.w3.org/2000/svg">
  <sodipodi:namedview
     id="namedview851"
     pagecolor="#ffffff"
     bordercolor="#666666"
     borderopacity="1.0"
     objecttolerance="10.0"
     gridtolerance="10.0"
     guidetolerance="10.0"
     inkscape:pageshadow="2"
     inkscape:pageopacity="0.0"
     inkscape:pagecheckerboard="0"
     showgrid="false"
     inkscape:zoom="0.58177083"
     inkscape:cx="1472.2292"
     inkscape:cy="-475.27306"
     inkscape:window-width="2048"
     inkscape:window-height="1099"
     inkscape:window-x="0"
     inkscape:window-y="25"
     inkscape:window-maximized="1"
     inkscape:current-layer="svg849" />
  <defs
     id="defs829">
    <clipPath
       id="a">
      <rect
         class="a"
         width="1920"
         height="75"
         id="rect824" />
    </clipPath>
    <style
       id="style827">
			.a{fill:none;}
			.b{clip-path: url(#a);}
			.d {opacity: 0.5; isolation: isolate;}
		</style>
  </defs>
  <title
     id="title831">
		wave
	</title>
  <g
     class="b"
     clip-path="url(#a)"
     id="g835"
     style="fill:#616161;fill-opacity:1">
    <path
       class="c"
       d="M1963,327H-105V65A2647.49,2647.49,0,0,1,431,19c217.7,3.5,239.6,30.8,470,36,297.3,6.7,367.5-36.2,642-28a2511.41,2511.41,0,0,1,420,48"
       id="path833"
       style="fill:#616161;fill-opacity:1" />
  </g>
  <g
     class="b"
     clip-path="url(#a)"
     id="g839"
     style="fill:#616161;fill-opacity:1">
    <path
       class="d"
       d="M-127,404H1963V44c-140.1-28-343.3-46.7-566,22-75.5,23.3-118.5,45.9-162,64-48.6,20.2-404.7,128-784,0C355.2,97.7,341.6,78.3,235,50,86.6,10.6-41.8,6.9-127,10"
       id="path837"
       style="fill:#616161;fill-opacity:1" />
  </g>
  <g
     class="b"
     clip-path="url(#a)"
     id="g843"
     style="fill:#616161;fill-opacity:1">
    <path
       class="d"
       d="M1979,462-155,446V106C251.8,20.2,576.6,15.9,805,30c167.4,10.3,322.3,32.9,680,56,207,13.4,378,20.3,494,24"
       id="path841"
       style="fill:#616161;fill-opacity:1" />
  </g>
  <g
     class="b"
     clip-path="url(#a)"
     id="g847"
     style="fill:#616161;fill-opacity:1">
    <path
       class="d"
       d="M1998,484H-243V100c445.8,26.8,794.2-4.1,1035-39,141-20.4,231.1-40.1,378-45,349.6-11.6,636.7,73.8,828,150"
       id="path845"
       style="fill:#616161;fill-opacity:1" />
  </g>
</svg>
